HIERARCHY
ROOT Hips
{
	OFFSET 	 0.0	 0.0	 0.0
	CHANNELS 6 Xposition Yposition Zposition Xrotation Yrotation Zrotation 
	JOINT Spine
	{
		OFFSET 	 15.3169	 0.0	 -0.012192
		CHANNELS 3 Xrotation Yrotation Zrotation 
		JOINT Spine_1
		{
			OFFSET 	 15.3176	 0.0	 -0.012192
			CHANNELS 3 Xrotation Yrotation Zrotation 
			JOINT Neck
			{
				OFFSET 	 19.9142	 -1e-06	 1.563377
				CHANNELS 3 Xrotation Yrotation Zrotation 
				JOINT Head
				{
					OFFSET 	 6.926521	 0.0	 0.0
					CHANNELS 3 Xrotation Yrotation Zrotation 
					End Site
					{
						OFFSET 	 20.766598	 0.0	 0.0
					}
				}
				JOINT LeftShoulder
				{
					OFFSET 	 -6.201691	 -7.28423	 0.708832
					CHANNELS 3 Xrotation Yrotation Zrotation 
					JOINT LeftArm
					{
						OFFSET 	 14.107998	 1.3e-05	 0.0
						CHANNELS 3 Xrotation Yrotation Zrotation 
						JOINT LeftForeArm
						{
							OFFSET 	 28.5802	 0.0	 0.0
							CHANNELS 3 Xrotation Yrotation Zrotation 
							JOINT LeftHand
							{
								OFFSET 	 27.091896	 0.0	 0.0
								CHANNELS 3 Xrotation Yrotation Zrotation 
								JOINT Bip01_L_Finger0
								{
									OFFSET 	 2.676086	 3.19825	 0.628212
									CHANNELS 3 Xrotation Yrotation Zrotation 
									JOINT Bip01_L_Finger01
									{
										OFFSET 	 2.82782	 0.0	 0.0
										CHANNELS 3 Xrotation Yrotation Zrotation 
										JOINT Bip01_L_Finger02
										{
											OFFSET 	 3.100327	 0.0	 0.0
											CHANNELS 3 Xrotation Yrotation Zrotation 
											End Site
											{
												OFFSET 	 2.683968	 0.0	 0.0
											}
										}
									}
								}
								JOINT Bip01_L_Finger1
								{
									OFFSET 	 9.438972	 2.24244	 -0.203926
									CHANNELS 3 Xrotation Yrotation Zrotation 
									JOINT Bip01_L_Finger11
									{
										OFFSET 	 3.12896	 0.0	 0.0
										CHANNELS 3 Xrotation Yrotation Zrotation 
										JOINT Bip01_L_Finger12
										{
											OFFSET 	 2.379051	 0.0	 0.0
											CHANNELS 3 Xrotation Yrotation Zrotation 
											End Site
											{
												OFFSET 	 2.09993	 0.0	 0.0
											}
										}
									}
								}
								JOINT Bip01_L_Finger2
								{
									OFFSET 	 9.55928	 -0.145352	 -0.186424
									CHANNELS 3 Xrotation Yrotation Zrotation 
									JOINT Bip01_L_Finger21
									{
										OFFSET 	 3.801407	 0.0	 0.0
										CHANNELS 3 Xrotation Yrotation Zrotation 
										JOINT Bip01_L_Finger22
										{
											OFFSET 	 2.848793	 0.0	 0.0
											CHANNELS 3 Xrotation Yrotation Zrotation 
											End Site
											{
												OFFSET 	 2.01886	 0.0	 0.0
											}
										}
									}
								}
								JOINT Bip01_L_Finger3
								{
									OFFSET 	 8.993629	 -2.30169	 0.226974
									CHANNELS 3 Xrotation Yrotation Zrotation 
									JOINT Bip01_L_Finger31
									{
										OFFSET 	 3.369652	 0.0	 0.0
										CHANNELS 3 Xrotation Yrotation Zrotation 
										JOINT Bip01_L_Finger32
										{
											OFFSET 	 2.444229	 0.0	 0.0
											CHANNELS 3 Xrotation Yrotation Zrotation 
											End Site
											{
												OFFSET 	 2.057808	 0.0	 0.0
											}
										}
									}
								}
								JOINT Bip01_L_Finger4
								{
									OFFSET 	 8.023811	 -3.97473	 1.201897
									CHANNELS 3 Xrotation Yrotation Zrotation 
									JOINT Bip01_L_Finger41
									{
										OFFSET 	 2.908783	 0.0	 0.0
										CHANNELS 3 Xrotation Yrotation Zrotation 
										JOINT Bip01_L_Finger42
										{
											OFFSET 	 1.535797	 0.0	 0.0
											CHANNELS 3 Xrotation Yrotation Zrotation 
											End Site
											{
												OFFSET 	 1.630142	 0.0	 0.0
											}
										}
									}
								}
							}
						}
					}
				}
				JOINT RightShoulder
				{
					OFFSET 	 -6.20549	 7.280139	 0.70887
					CHANNELS 3 Xrotation Yrotation Zrotation 
					JOINT RightArm
					{
						OFFSET 	 14.107998	 -1e-05	 0.0
						CHANNELS 3 Xrotation Yrotation Zrotation 
						JOINT RightForeArm
						{
							OFFSET 	 28.5802	 -1.9e-05	 0.0
							CHANNELS 3 Xrotation Yrotation Zrotation 
							JOINT RightHand
							{
								OFFSET 	 27.092003	 0.0	 0.0
								CHANNELS 3 Xrotation Yrotation Zrotation 
								JOINT Bip01_R_Finger0
								{
									OFFSET 	 2.676079	 -3.19825	 0.628212
									CHANNELS 3 Xrotation Yrotation Zrotation 
									JOINT Bip01_R_Finger01
									{
										OFFSET 	 2.82782	 0.0	 0.0
										CHANNELS 3 Xrotation Yrotation Zrotation 
										JOINT Bip01_R_Finger02
										{
											OFFSET 	 3.100342	 0.0	 0.0
											CHANNELS 3 Xrotation Yrotation Zrotation 
											End Site
											{
												OFFSET 	 2.68396	 0.0	 0.0
											}
										}
									}
								}
								JOINT Bip01_R_Finger1
								{
									OFFSET 	 9.438957	 -2.242439	 -0.203918
									CHANNELS 3 Xrotation Yrotation Zrotation 
									JOINT Bip01_R_Finger11
									{
										OFFSET 	 3.12896	 0.0	 0.0
										CHANNELS 3 Xrotation Yrotation Zrotation 
										JOINT Bip01_R_Finger12
										{
											OFFSET 	 2.379051	 0.0	 0.0
											CHANNELS 3 Xrotation Yrotation Zrotation 
											End Site
											{
												OFFSET 	 2.099922	 0.0	 0.0
											}
										}
									}
								}
								JOINT Bip01_R_Finger2
								{
									OFFSET 	 9.559288	 0.145353	 -0.186417
									CHANNELS 3 Xrotation Yrotation Zrotation 
									JOINT Bip01_R_Finger21
									{
										OFFSET 	 3.801407	 0.0	 0.0
										CHANNELS 3 Xrotation Yrotation Zrotation 
										JOINT Bip01_R_Finger22
										{
											OFFSET 	 2.848793	 0.0	 0.0
											CHANNELS 3 Xrotation Yrotation Zrotation 
											End Site
											{
												OFFSET 	 2.01886	 0.0	 0.0
											}
										}
									}
								}
								JOINT Bip01_R_Finger3
								{
									OFFSET 	 8.993629	 2.301691	 0.226974
									CHANNELS 3 Xrotation Yrotation Zrotation 
									JOINT Bip01_R_Finger31
									{
										OFFSET 	 3.369652	 0.0	 0.0
										CHANNELS 3 Xrotation Yrotation Zrotation 
										JOINT Bip01_R_Finger32
										{
											OFFSET 	 2.444221	 0.0	 0.0
											CHANNELS 3 Xrotation Yrotation Zrotation 
											End Site
											{
												OFFSET 	 2.057823	 0.0	 0.0
											}
										}
									}
								}
								JOINT Bip01_R_Finger4
								{
									OFFSET 	 8.023811	 3.97473	 1.20192
									CHANNELS 3 Xrotation Yrotation Zrotation 
									JOINT Bip01_R_Finger41
									{
										OFFSET 	 2.908783	 0.0	 0.0
										CHANNELS 3 Xrotation Yrotation Zrotation 
										JOINT Bip01_R_Finger42
										{
											OFFSET 	 1.535797	 0.0	 0.0
											CHANNELS 3 Xrotation Yrotation Zrotation 
											End Site
											{
												OFFSET 	 1.630142	 0.0	 0.0
											}
										}
									}
								}
							}
						}
					}
				}
			}
		}
	}
	JOINT LeftUpLeg
	{
		OFFSET 	 -12.021299	 -8.83685	 -0.372498
		CHANNELS 3 Xrotation Yrotation Zrotation 
		JOINT LeftLeg
		{
			OFFSET 	 39.9035	 0.0	 0.0
			CHANNELS 3 Xrotation Yrotation Zrotation 
			JOINT LeftFoot
			{
				OFFSET 	 39.6689	 0.0	 0.0
				CHANNELS 3 Xrotation Yrotation Zrotation 
				JOINT Bip01_L_Toe0
				{
					OFFSET 	 10.162399	 -2e-06	 13.629601
					CHANNELS 3 Xrotation Yrotation Zrotation 
					End Site
					{
						OFFSET 	 8.38147	 0.0	 0.0
					}
				}
			}
		}
	}
	JOINT RightUpLeg
	{
		OFFSET 	 -12.021299	 8.836849	 -0.372444
		CHANNELS 3 Xrotation Yrotation Zrotation 
		JOINT RightLeg
		{
			OFFSET 	 39.9035	 0.0	 0.0
			CHANNELS 3 Xrotation Yrotation Zrotation 
			JOINT RightFoot
			{
				OFFSET 	 39.6689	 0.0	 0.0
				CHANNELS 3 Xrotation Yrotation Zrotation 
				JOINT Bip01_R_Toe0
				{
					OFFSET 	 10.162399	 -2e-06	 13.629601
					CHANNELS 3 Xrotation Yrotation Zrotation 
					End Site
					{
						OFFSET 	 8.38147	 0.0	 0.0
					}
				}
			}
		}
	}
}
MOTION
Frames: 4
Frame Time: 0.013889
-1.37108606254	90.0	-1.1700383429	-179.43352147	6.71627387244	-91.1602664308	-1.90485882196	-0.0754995111099	2.27331587298	1.99986079035e-06	-9.12259287529e-12	-1.46072846311e-12	-0.877861139081	-20.0455291978	5.30082037794	-1.75610383488	3.30978270199	-1.52627784599	172.628820296	-19.7891404439	108.578304984	37.3612172607	29.1746914637	37.4956067257	-2.00809724108e-06	38.2585058923	8.00084355468e-06	-95.9312410044	0.318106466201	0.225230365904	-0.0	0.0	0.0	-0.0	0.0	0.0	-0.0	0.0	0.0	-0.0	0.0	0.0	-0.0	0.0	0.0	-0.0	0.0	0.0	-0.0	0.0	0.0	-0.0	0.0	0.0	-0.0	0.0	0.0	-0.0	0.0	0.0	-0.0	0.0	0.0	-0.0	0.0	0.0	-0.0	0.0	0.0	-0.0	0.0	0.0	-0.0	0.0	0.0	-169.233143353	-19.2500080454	-108.347159942	-37.3297119058	21.0930816366	-41.2499334142	-3.00653925181e-06	36.1906085167	8.00060020919e-06	109.075862042	3.66814277507	-0.87952579638	-0.0	0.0	0.0	-0.0	0.0	0.0	-0.0	0.0	0.0	-0.0	0.0	0.0	-0.0	0.0	0.0	-0.0	0.0	0.0	-0.0	0.0	0.0	-0.0	0.0	0.0	-0.0	0.0	0.0	-0.0	0.0	0.0	-0.0	0.0	0.0	-0.0	0.0	0.0	-0.0	0.0	0.0	-0.0	0.0	0.0	-0.0	0.0	0.0	23.4974991618	-6.896311543	-169.11750142	-1.37664567923e-10	24.7176287983	4.00016302514e-06	-8.25226892155	-14.7774468561	-5.82516921179	-0.0	0.0	0.0	-21.3492150128	18.7311928594	-173.704166032	-9.99915410231e-07	20.6406998302	4.99979834126e-06	9.64463760704	-11.8593902309	-0.520266423736	-0.0	0.0	0.0	
-0.751156517878	90.1638980825	-2.31574762163	-179.45244897	7.11689308273	-91.1633781791	-1.81590445241	-0.0585219550107	2.33465151748	9.99901768264e-07	-1.05197177876e-11	-1.60520940531e-12	-0.704625803496	-20.0870949534	5.34355945993	-1.68861061372	3.35285906804	-1.55739479288	172.592980446	-19.8104860048	108.574982086	37.4128114921	29.2593573719	37.5450343625	-5.00755295569e-06	38.2978732594	9.00078784502e-06	-96.240573198	0.469334134347	0.311315051384	-0.0	0.0	0.0	-0.0	0.0	0.0	-0.0	0.0	0.0	-0.0	0.0	0.0	-0.0	0.0	0.0	-0.0	0.0	0.0	-0.0	0.0	0.0	-0.0	0.0	0.0	-0.0	0.0	0.0	-0.0	0.0	0.0	-0.0	0.0	0.0	-0.0	0.0	0.0	-0.0	0.0	0.0	-0.0	0.0	0.0	-0.0	0.0	0.0	-169.250182821	-19.3082156536	-108.350066295	-37.383875565	21.1726441074	-41.1300345796	-8.00628488457e-06	36.3156060847	7.00065437305e-06	109.057495587	3.74654188045	-0.905082443827	-0.0	0.0	0.0	-0.0	0.0	0.0	-0.0	0.0	0.0	-0.0	0.0	0.0	-0.0	0.0	0.0	-0.0	0.0	0.0	-0.0	0.0	0.0	-0.0	0.0	0.0	-0.0	0.0	0.0	-0.0	0.0	0.0	-0.0	0.0	0.0	-0.0	0.0	0.0	-0.0	0.0	0.0	-0.0	0.0	0.0	-0.0	0.0	0.0	23.0848136074	-6.11956055544	-169.045248074	-1.52873261049e-10	26.6222241483	4.00020156629e-06	-8.42172866656	-13.9692563686	-5.02155787492	-0.0	0.0	0.0	-20.8842823301	18.2071211615	-173.693097767	-1.99986501708e-06	20.9917992599	3.99986706207e-06	9.70766669501	-12.1685875934	-0.448730502476	-0.0	0.0	0.0	
-0.152481767426	90.3234917273	-3.41111832967	-179.446302555	7.52251513978	-91.1560631497	-1.71509975914	-0.0430750274544	2.35499673684	-0.0	-1.66872101491e-11	2.80170168009e-13	-0.528931676999	-20.1341018409	5.37869717515	-1.62620085245	3.39029342734	-1.5926328401	172.542505011	-19.8282541532	108.568926877	37.5148235924	29.3655159615	37.5733776525	-6.00745945381e-06	38.3276605424	7.00093469566e-06	-96.6638278061	0.671648465639	0.420829033376	-0.0	0.0	0.0	-0.0	0.0	0.0	-0.0	0.0	0.0	-0.0	0.0	0.0	-0.0	0.0	0.0	-0.0	0.0	0.0	-0.0	0.0	0.0	-0.0	0.0	0.0	-0.0	0.0	0.0	-0.0	0.0	0.0	-0.0	0.0	0.0	-0.0	0.0	0.0	-0.0	0.0	0.0	-0.0	0.0	0.0	-0.0	0.0	0.0	-169.265132474	-19.3594152375	-108.34175068	-37.4382937845	21.2779014845	-41.0023348446	-7.00914951449e-09	36.4647007947	6.00081690497e-06	109.075381508	3.87565500966	-0.954407284267	-0.0	0.0	0.0	-0.0	0.0	0.0	-0.0	0.0	0.0	-0.0	0.0	0.0	-0.0	0.0	0.0	-0.0	0.0	0.0	-0.0	0.0	0.0	-0.0	0.0	0.0	-0.0	0.0	0.0	-0.0	0.0	0.0	-0.0	0.0	0.0	-0.0	0.0	0.0	-0.0	0.0	0.0	-0.0	0.0	0.0	-0.0	0.0	0.0	22.6257309303	-5.22712481001	-169.075268568	-2.00005730853e-06	28.6883785727	4.000243067e-06	-8.55028280284	-13.1077175741	-4.13618252824	-0.0	0.0	0.0	-20.5299718787	17.6272585371	-173.714799512	-2.99979827055e-06	21.2732930876	2.99993897507e-06	9.68346460448	-12.4827219161	-0.443772848126	-0.0	0.0	0.0	
0.439368517363	90.44809201	-4.44091750187	-179.427197964	7.92645340848	-91.1112722867	-1.60627503204	-0.040121692897	2.36669080699	-0.0	-6.71342629472e-12	-6.92178640897e-13	-0.361173176397	-20.1822221538	5.37883967421	-1.56544481298	3.41056847243	-1.62114016325	172.488507455	-19.849818181	108.547463039	37.6639999054	29.4882858695	37.5831682644	-3.00739918509e-06	38.3644393331	7.00093641478e-06	-97.1260739446	0.936512227837	0.53103084831	-0.0	0.0	0.0	-0.0	0.0	0.0	-0.0	0.0	0.0	-0.0	0.0	0.0	-0.0	0.0	0.0	-0.0	0.0	0.0	-0.0	0.0	0.0	-0.0	0.0	0.0	-0.0	0.0	0.0	-0.0	0.0	0.0	-0.0	0.0	0.0	-0.0	0.0	0.0	-0.0	0.0	0.0	-0.0	0.0	0.0	-0.0	0.0	0.0	-169.299702788	-19.407828276	-108.348877087	-37.466401662	21.3815633507	-40.8677436653	-4.00679590876e-06	36.6346979417	7.00070421997e-06	109.077202925	4.03268414726	-1.00088842101	-0.0	0.0	0.0	-0.0	0.0	0.0	-0.0	0.0	0.0	-0.0	0.0	0.0	-0.0	0.0	0.0	-0.0	0.0	0.0	-0.0	0.0	0.0	-0.0	0.0	0.0	-0.0	0.0	0.0	-0.0	0.0	0.0	-0.0	0.0	0.0	-0.0	0.0	0.0	-0.0	0.0	0.0	-0.0	0.0	0.0	-0.0	0.0	0.0	22.1681746563	-4.20698485662	-169.192741273	-1.00012431261e-06	30.8808346731	5.00021619998e-06	-8.61891132263	-12.1904467452	-2.99759111447	-0.0	0.0	0.0	-20.2712516063	16.9934124315	-173.788723113	1.99984776741e-06	21.4621949866	3.99990128762e-06	9.62653260158	-12.765239978	-0.476577919506	-0.0	0.0	0.0	
